<?xml version="1.0"?>
<svg xmlns="http://www.w3.org/2000/svg" xmlns:xlink="http://www.w3.org/1999/xlink" version="1.1" id="Layer_1" x="0px" y="0px" viewBox="0 0 512.853 512.853" style="enable-background:new 0 0 512.853 512.853;" xml:space="preserve" width="512px" height="512px"><g><g transform="translate(1 1)">
	<g>
		<g>
			<path d="M488.813,306.627h-46.08V263.96c0-5.12-3.413-8.533-8.533-8.533H263.533v-34.133h88.747     c36.693,0,64.853-29.013,64.853-67.413c0-31.573-18.773-58.027-46.08-66.56c-4.267-48.64-44.373-87.893-93.867-87.893     c-29.867,0-58.027,14.507-76.8,37.547c-6.827-2.56-15.36-3.413-22.187-3.413c-0.907,0-1.806,0.021-2.697,0.062     c-27.629,1.278-47.65,22.151-47.65,49.431c0,0.103,0.01,0.2,0.013,0.301c-0.002,0.185-0.013,0.366-0.013,0.552     c-21.333,12.8-34.987,36.693-34.987,63.147c0,40.96,31.573,74.24,69.973,74.24h83.627v34.133H75.8     c-5.12,0-8.533,3.413-8.533,8.533v42.667H22.04c-12.8,0-23.04,10.24-23.04,23.04v158.72c0,12.8,10.24,23.04,23.04,23.04h107.52     c12.8,0,23.04-10.24,23.893-22.187V329.667c0-12.8-10.24-23.04-23.04-23.04h-46.08v-34.133h162.133v34.133H201.24     c-12.8,0-23.04,10.24-23.04,23.04v158.72c0,12.8,10.24,23.04,23.04,23.04h107.52c12.8,0,23.04-10.24,23.893-22.187V329.667     c0-12.8-10.24-23.04-23.04-23.04h-46.08v-34.133h162.133v34.133H380.44c-12.8,0-23.04,10.24-23.04,23.04v158.72     c0,12.8,10.24,23.04,23.04,23.04h107.52c12.8,0,23.04-10.24,23.893-22.187V329.667     C511.853,316.867,501.613,306.627,488.813,306.627z M109.933,147.053c0-22.187,11.093-41.813,29.867-50.347l5.12-2.56v-5.12     c0-0.853,0-0.853,0-2.56v-0.853v-2.56c0-18.773,13.653-32.427,33.28-32.427c18.773,0,34.133,15.36,34.133,34.133     c0,5.12,3.413,8.533,8.533,8.533s8.533-3.413,8.533-8.533c0-15.309-6.182-28.713-16.28-37.965     c14.999-19.405,39.47-31.155,63.213-31.155c42.667,0,76.8,34.987,77.653,77.653v6.827l6.827,1.707     c23.04,4.267,39.253,26.453,39.253,52.053c0,29.013-20.48,50.347-47.787,50.347H162.84     C133.827,204.227,109.933,178.627,109.933,147.053z M136.387,329.667v158.72c0,3.413-2.56,5.973-5.973,5.973H22.04     c-3.413,0-5.973-2.56-5.973-5.12V329.667c0-3.413,2.56-5.973,5.973-5.973h108.373     C133.827,323.693,136.387,326.253,136.387,329.667z M315.587,329.667V489.24c0,3.413-2.56,5.973-5.973,5.973H201.24     c-3.413,0-5.973-2.56-5.973-5.973V329.667c0-3.413,2.56-5.973,5.973-5.973h108.373     C313.027,323.693,315.587,326.253,315.587,329.667z M494.787,489.24c0,3.413-2.56,5.973-5.973,5.973H380.44     c-3.413,0-5.973-2.56-5.973-5.973V329.667c0-3.413,2.56-5.973,5.973-5.973h108.373c3.413,0,5.973,2.56,5.973,5.973V489.24z" data-original="#000000" class="active-path" data-old_color="#1b355c" fill="#1b355c"/>
			<path d="M41.667,417.56c5.12,0,8.533-3.413,8.533-8.533s-3.413-8.533-8.533-8.533s-8.533,3.413-8.533,8.533     S36.547,417.56,41.667,417.56z" data-original="#000000" class="active-path" data-old_color="#1b355c" fill="#1b355c"/>
			<path d="M84.333,409.027c0-5.12-3.413-8.533-8.533-8.533s-8.533,3.413-8.533,8.533s3.413,8.533,8.533,8.533     S84.333,414.147,84.333,409.027z" data-original="#000000" class="active-path" data-old_color="#1b355c" fill="#1b355c"/>
			<path d="M109.933,400.493c-5.12,0-8.533,3.413-8.533,8.533s3.413,8.533,8.533,8.533s8.533-3.413,8.533-8.533     S115.053,400.493,109.933,400.493z" data-original="#000000" class="active-path" data-old_color="#1b355c" fill="#1b355c"/>
			<path d="M220.867,391.96c5.12,0,8.533-3.413,8.533-8.533s-3.413-8.533-8.533-8.533s-8.533,3.413-8.533,8.533     S215.747,391.96,220.867,391.96z" data-original="#000000" class="active-path" data-old_color="#1b355c" fill="#1b355c"/>
			<path d="M246.467,383.427c0,5.12,3.413,8.533,8.533,8.533s8.533-3.413,8.533-8.533s-3.413-8.533-8.533-8.533     S246.467,378.307,246.467,383.427z" data-original="#000000" class="active-path" data-old_color="#1b355c" fill="#1b355c"/>
			<path d="M237.933,366.36c5.12,0,8.533-3.413,8.533-8.533s-3.413-8.533-8.533-8.533s-8.533,3.413-8.533,8.533     S232.813,366.36,237.933,366.36z" data-original="#000000" class="active-path" data-old_color="#1b355c" fill="#1b355c"/>
			<path d="M272.067,366.36c5.12,0,8.533-3.413,8.533-8.533s-3.413-8.533-8.533-8.533c-5.12,0-8.533,3.413-8.533,8.533     S266.947,366.36,272.067,366.36z" data-original="#000000" class="active-path" data-old_color="#1b355c" fill="#1b355c"/>
			<path d="M289.133,391.96c5.12,0,8.533-3.413,8.533-8.533s-3.413-8.533-8.533-8.533s-8.533,3.413-8.533,8.533     S284.013,391.96,289.133,391.96z" data-original="#000000" class="active-path" data-old_color="#1b355c" fill="#1b355c"/>
			<path d="M33.133,357.827c0,5.12,3.413,8.533,8.533,8.533h68.267c5.12,0,8.533-3.413,8.533-8.533s-3.413-8.533-8.533-8.533H41.667     C36.547,349.293,33.133,352.707,33.133,357.827z" data-original="#000000" class="active-path" data-old_color="#1b355c" fill="#1b355c"/>
			<path d="M109.933,451.693H41.667c-5.12,0-8.533,3.413-8.533,8.533c0,5.12,3.413,8.533,8.533,8.533h68.267     c5.12,0,8.533-3.413,8.533-8.533C118.467,455.107,115.053,451.693,109.933,451.693z" data-original="#000000" class="active-path" data-old_color="#1b355c" fill="#1b355c"/>
			<path d="M400.067,417.56c5.12,0,8.533-3.413,8.533-8.533s-3.413-8.533-8.533-8.533c-5.12,0-8.533,3.413-8.533,8.533     S394.947,417.56,400.067,417.56z" data-original="#000000" class="active-path" data-old_color="#1b355c" fill="#1b355c"/>
			<path d="M442.733,409.027c0-5.12-3.413-8.533-8.533-8.533s-8.533,3.413-8.533,8.533s3.413,8.533,8.533,8.533     S442.733,414.147,442.733,409.027z" data-original="#000000" class="active-path" data-old_color="#1b355c" fill="#1b355c"/>
			<path d="M468.333,400.493c-5.12,0-8.533,3.413-8.533,8.533s3.413,8.533,8.533,8.533s8.533-3.413,8.533-8.533     S473.453,400.493,468.333,400.493z" data-original="#000000" class="active-path" data-old_color="#1b355c" fill="#1b355c"/>
			<path d="M468.333,349.293h-68.267c-5.12,0-8.533,3.413-8.533,8.533s3.413,8.533,8.533,8.533h68.267     c5.12,0,8.533-3.413,8.533-8.533S473.453,349.293,468.333,349.293z" data-original="#000000" class="active-path" data-old_color="#1b355c" fill="#1b355c"/>
			<path d="M468.333,451.693h-68.267c-5.12,0-8.533,3.413-8.533,8.533c0,5.12,3.413,8.533,8.533,8.533h68.267     c5.12,0,8.533-3.413,8.533-8.533C476.867,455.107,473.453,451.693,468.333,451.693z" data-original="#000000" class="active-path" data-old_color="#1b355c" fill="#1b355c"/>
			<path d="M289.133,417.56h-68.267c-5.12,0-8.533,3.413-8.533,8.533s3.413,8.533,8.533,8.533h68.267     c5.12,0,8.533-3.413,8.533-8.533S294.253,417.56,289.133,417.56z" data-original="#000000" class="active-path" data-old_color="#1b355c" fill="#1b355c"/>
			<path d="M289.133,451.693h-25.6c-5.12,0-8.533,3.413-8.533,8.533c0,5.12,3.413,8.533,8.533,8.533h25.6     c5.12,0,8.533-3.413,8.533-8.533C297.667,455.107,294.253,451.693,289.133,451.693z" data-original="#000000" class="active-path" data-old_color="#1b355c" fill="#1b355c"/>
			<path d="M229.4,451.693h-8.533c-5.12,0-8.533,3.413-8.533,8.533c0,5.12,3.413,8.533,8.533,8.533h8.533     c5.12,0,8.533-3.413,8.533-8.533C237.933,455.107,234.52,451.693,229.4,451.693z" data-original="#000000" class="active-path" data-old_color="#1b355c" fill="#1b355c"/>
		</g>
	</g>
</g></g> </svg>
