<?xml version="1.0"?>
<svg xmlns="http://www.w3.org/2000/svg" xmlns:xlink="http://www.w3.org/1999/xlink" version="1.1" id="Layer_1" x="0px" y="0px" viewBox="0 0 512 512" style="enable-background:new 0 0 512 512;" xml:space="preserve" width="512px" height="512px" class=""><g><g>
	<g>
		<path d="M503.467,187.733h-111.13C387.852,83.458,301.626,0,196.267,0C88.047,0,0,88.047,0,196.267    c0,105.36,83.458,191.585,187.733,196.07v111.13c0,4.71,3.823,8.533,8.533,8.533h307.2c4.71,0,8.533-3.823,8.533-8.533v-307.2    C512,191.556,508.177,187.733,503.467,187.733z M17.067,196.267c0-98.816,80.384-179.2,179.2-179.2s179.2,80.384,179.2,179.2    s-80.384,179.2-179.2,179.2S17.067,295.083,17.067,196.267z M494.933,494.933H204.8V392.337    c101.445-4.363,183.174-86.092,187.537-187.537h102.597V494.933z" data-original="#000000" class="active-path" data-old_color="#1b355c" fill="#1b355c"/>
	</g>
</g></g> </svg>
