<?xml version="1.0"?>
<svg xmlns="http://www.w3.org/2000/svg" xmlns:xlink="http://www.w3.org/1999/xlink" version="1.1" id="Capa_1" x="0px" y="0px" viewBox="0 0 503.607 503.607" style="enable-background:new 0 0 503.607 503.607;" xml:space="preserve" width="512px" height="512px"><g><g>
	<g>
		<g>
			<path d="M465.853,8.393H37.754C16.938,8.393,0,25.331,0,46.156v281.189v37.779c0,20.824,16.938,37.762,37.754,37.762h149.88     c1.192,14.711-5.19,29.224-16.983,37.54l-15.159,10.685c-0.881,0.621-1.6,1.386-2.161,2.235     c-10.663,0.987-19.037,9.975-19.037,20.885c0,11.566,9.409,20.984,20.984,20.984h193.049c11.575,0,20.984-9.417,20.984-20.984     c0-10.906-8.368-19.893-19.027-20.884c-0.561-0.85-1.281-1.615-2.164-2.235l-15.142-10.668     c-11.8-8.316-18.191-22.837-16.999-37.556h149.872c20.816,0,37.754-16.938,37.754-37.762v-37.779V46.156     C503.607,25.331,486.669,8.393,465.853,8.393z M16.787,46.156c0-11.566,9.409-20.975,20.967-20.975h428.099     c11.558,0,20.967,9.409,20.967,20.975v264.402H16.787V46.156z M348.328,478.426H155.279c-2.275,0-4.197-1.922-4.197-4.197     c0-2.275,1.922-4.197,4.197-4.197h193.049c2.275,0,4.197,1.922,4.197,4.197C352.525,476.504,350.603,478.426,348.328,478.426z      M322.071,453.246H181.536c15.505-11.588,24.031-30.8,22.914-50.361h94.716C298.047,422.447,306.57,441.66,322.071,453.246z      M486.82,365.123c0,11.566-9.409,20.975-20.967,20.975H194.574c-0.012,0-0.023,0-0.035,0H37.754     c-11.558,0-20.967-9.409-20.967-20.975v-37.779H486.82V365.123z" data-original="#000000" class="active-path" data-old_color="#1b355c" fill="#1b355c"/>
			<path d="M344.072,116.546c-0.042-0.366-0.104-0.727-0.193-1.081c-0.019-0.075-0.049-0.146-0.07-0.221     c-0.08-0.284-0.169-0.564-0.277-0.836c-0.053-0.133-0.118-0.259-0.177-0.389c-0.095-0.207-0.192-0.411-0.303-0.609     c-0.077-0.138-0.162-0.27-0.247-0.404c-0.114-0.179-0.233-0.353-0.361-0.524c-0.098-0.131-0.198-0.26-0.304-0.385     c-0.136-0.161-0.28-0.313-0.428-0.464c-0.114-0.117-0.226-0.234-0.348-0.344c-0.17-0.154-0.353-0.295-0.536-0.435     c-0.115-0.088-0.223-0.182-0.342-0.265c-0.013-0.009-0.024-0.02-0.037-0.029c-0.295-0.2-0.601-0.378-0.914-0.537     c-0.014-0.007-0.026-0.017-0.04-0.024l-83.934-41.967c-2.359-1.183-5.145-1.183-7.512,0l-83.934,41.967     c-0.014,0.007-0.026,0.017-0.04,0.024c-0.313,0.158-0.618,0.335-0.912,0.534c-0.018,0.012-0.033,0.027-0.05,0.039     c-0.097,0.067-0.185,0.144-0.279,0.215c-0.206,0.156-0.409,0.314-0.599,0.486c-0.111,0.1-0.212,0.208-0.317,0.314     c-0.159,0.161-0.313,0.325-0.458,0.497c-0.099,0.117-0.192,0.237-0.284,0.359c-0.135,0.18-0.262,0.365-0.382,0.555     c-0.078,0.124-0.157,0.246-0.228,0.374c-0.121,0.215-0.227,0.437-0.329,0.662c-0.05,0.112-0.107,0.22-0.152,0.334     c-0.137,0.342-0.256,0.692-0.347,1.051c0,0,0,0,0,0.001c-0.094,0.372-0.159,0.752-0.201,1.137     c-0.008,0.077-0.008,0.154-0.014,0.231c-0.019,0.23-0.043,0.46-0.043,0.694v92.328c0,3.181,1.796,6.085,4.642,7.512     l83.934,41.967c0.096,0.048,0.196,0.081,0.293,0.125c0.077,0.035,0.154,0.066,0.231,0.099c0.25,0.104,0.503,0.195,0.76,0.274     c0.114,0.035,0.227,0.07,0.342,0.101c0.228,0.06,0.458,0.105,0.689,0.145c0.131,0.023,0.261,0.052,0.393,0.068     c0.257,0.032,0.514,0.045,0.772,0.054c0.091,0.003,0.181,0.019,0.272,0.019c0.365,0,0.73-0.03,1.093-0.078     c0.076-0.01,0.15-0.027,0.226-0.039c0.276-0.044,0.55-0.099,0.822-0.171c0.113-0.03,0.224-0.065,0.336-0.1     c0.228-0.071,0.453-0.151,0.676-0.242c0.129-0.053,0.257-0.107,0.384-0.166c0.071-0.033,0.145-0.058,0.216-0.093l83.934-41.967     c2.845-1.418,4.642-4.323,4.642-7.504V117.51c0-0.183-0.022-0.362-0.034-0.543C344.088,116.826,344.088,116.685,344.072,116.546z      M251.807,84.928l63.454,31.727l-63.454,25.382L226.96,132.1l-38.614-15.446L251.807,84.928z M176.262,129.906l67.148,26.859     v81.456l-67.148-33.574V129.906z M327.344,204.651l-67.148,33.574v-81.458l67.148-26.859V204.651z" data-original="#000000" class="active-path" data-old_color="#1b355c" fill="#1b355c"/>
			<path d="M134.295,50.361H92.328c-4.642,0-8.393,3.76-8.393,8.393s3.752,8.393,8.393,8.393h41.967c4.642,0,8.393-3.76,8.393-8.393     S138.937,50.361,134.295,50.361z" data-original="#000000" class="active-path" data-old_color="#1b355c" fill="#1b355c"/>
			<path d="M50.361,67.148h8.393c4.642,0,8.393-3.76,8.393-8.393s-3.752-8.393-8.393-8.393h-8.393c-4.642,0-8.393,3.76-8.393,8.393     S45.719,67.148,50.361,67.148z" data-original="#000000" class="active-path" data-old_color="#1b355c" fill="#1b355c"/>
			<path d="M92.328,92.328c0-4.633-3.752-8.393-8.393-8.393H50.361c-4.642,0-8.393,3.76-8.393,8.393s3.752,8.393,8.393,8.393h33.574     C88.576,100.721,92.328,96.961,92.328,92.328z" data-original="#000000" class="active-path" data-old_color="#1b355c" fill="#1b355c"/>
			<path d="M134.295,83.934h-16.787c-4.642,0-8.393,3.76-8.393,8.393s3.752,8.393,8.393,8.393h16.787     c4.642,0,8.393-3.76,8.393-8.393S138.937,83.934,134.295,83.934z" data-original="#000000" class="active-path" data-old_color="#1b355c" fill="#1b355c"/>
			<path d="M453.246,235.016h-41.967c-4.642,0-8.393,3.76-8.393,8.393s3.752,8.393,8.393,8.393h41.967     c4.642,0,8.393-3.76,8.393-8.393S457.887,235.016,453.246,235.016z" data-original="#000000" class="active-path" data-old_color="#1b355c" fill="#1b355c"/>
			<path d="M369.311,251.803h8.393c4.642,0,8.393-3.76,8.393-8.393s-3.752-8.393-8.393-8.393h-8.393     c-4.642,0-8.393,3.76-8.393,8.393S364.67,251.803,369.311,251.803z" data-original="#000000" class="active-path" data-old_color="#1b355c" fill="#1b355c"/>
			<path d="M402.885,268.59h-33.574c-4.642,0-8.393,3.76-8.393,8.393s3.752,8.393,8.393,8.393h33.574     c4.642,0,8.393-3.76,8.393-8.393S407.527,268.59,402.885,268.59z" data-original="#000000" class="active-path" data-old_color="#1b355c" fill="#1b355c"/>
			<path d="M453.246,268.59h-16.787c-4.642,0-8.393,3.76-8.393,8.393s3.752,8.393,8.393,8.393h16.787     c4.642,0,8.393-3.76,8.393-8.393S457.887,268.59,453.246,268.59z" data-original="#000000" class="active-path" data-old_color="#1b355c" fill="#1b355c"/>
			<path d="M453.246,75.541h-16.787V58.754c0-4.633-3.752-8.393-8.393-8.393c-4.642,0-8.393,3.76-8.393,8.393v16.787h-16.787     c-4.642,0-8.393,3.76-8.393,8.393s3.752,8.393,8.393,8.393h16.787v16.787c0,4.633,3.752,8.393,8.393,8.393     c4.642,0,8.393-3.76,8.393-8.393V92.328h16.787c4.642,0,8.393-3.76,8.393-8.393S457.887,75.541,453.246,75.541z" data-original="#000000" class="active-path" data-old_color="#1b355c" fill="#1b355c"/>
			<path d="M123.442,220.689c-3.282-3.282-8.586-3.282-11.868,0l-19.246,19.246l-19.246-19.246c-3.282-3.282-8.586-3.282-11.868,0     c-3.282,3.282-3.282,8.586,0,11.868l19.246,19.246l-19.246,19.246c-3.282,3.282-3.282,8.586,0,11.868     c1.637,1.637,3.785,2.459,5.934,2.459c2.149,0,4.297-0.823,5.934-2.459l19.246-19.246l19.246,19.246     c1.637,1.637,3.785,2.459,5.934,2.459c2.149,0,4.297-0.823,5.934-2.459c3.282-3.282,3.282-8.586,0-11.868l-19.246-19.246     l19.246-19.246C126.724,229.275,126.724,223.971,123.442,220.689z" data-original="#000000" class="active-path" data-old_color="#1b355c" fill="#1b355c"/>
		</g>
	</g>
</g></g> </svg>
