<?xml version="1.0"?>
<svg xmlns="http://www.w3.org/2000/svg" xmlns:xlink="http://www.w3.org/1999/xlink" version="1.1" id="Layer_1" x="0px" y="0px" viewBox="0 0 503.607 503.607" style="enable-background:new 0 0 503.607 503.607;" xml:space="preserve" width="512px" height="512px" class=""><g><g>
	<g>
		<g>
			<path d="M293.77,58.754c0-0.005-0.001-0.01-0.001-0.016V33.247C293.77,14.915,278.854,0,260.515,0H41.647     C23.308,0,8.393,14.915,8.393,33.247v42.295C3.751,75.542,0,79.302,0,83.935v8.393c0,4.633,3.751,8.393,8.393,8.393v8.394     c-4.641,0-8.393,3.76-8.393,8.393v8.393c0,4.633,3.751,8.393,8.393,8.393v8.394c-4.641,0-8.393,3.76-8.393,8.393v8.393     c0,4.633,3.751,8.393,8.393,8.393V470.36c0,18.331,14.915,33.246,33.255,33.246h218.867c18.34,0,33.255-14.915,33.255-33.246     v-25.492c0-0.005,0.001-0.01,0.001-0.016s-0.001-0.01-0.001-0.016V58.77C293.77,58.765,293.77,58.759,293.77,58.754z      M167.869,470.033c0,9.258-7.529,16.787-16.787,16.787c-9.258,0-16.787-7.529-16.787-16.787s7.529-16.787,16.787-16.787     C160.34,453.246,167.869,460.775,167.869,470.033z M25.179,436.459V67.148h251.803v369.311H25.179z M41.647,16.787h218.867     c9.082,0,16.468,7.386,16.468,16.46v17.114H25.179V33.247C25.179,24.173,32.566,16.787,41.647,16.787z M25.179,470.36v-17.114     h96.844c-2.866,4.942-4.515,10.673-4.515,16.787s1.65,11.845,4.515,16.787H41.647C32.566,486.82,25.179,479.433,25.179,470.36z      M260.515,486.82H180.14c2.866-4.942,4.515-10.673,4.515-16.787s-1.65-11.845-4.515-16.787h96.842v17.114     C276.983,479.433,269.596,486.82,260.515,486.82z" data-original="#000000" class="active-path" data-old_color="#1b355c" fill="#1b355c"/>
			<path d="M142.688,41.967h41.967c4.642,0,8.393-3.76,8.393-8.393s-3.752-8.393-8.393-8.393h-41.967     c-4.642,0-8.393,3.76-8.393,8.393S138.047,41.967,142.688,41.967z" data-original="#000000" class="active-path" data-old_color="#1b355c" fill="#1b355c"/>
			<path d="M109.115,41.967h8.393c4.642,0,8.393-3.76,8.393-8.393s-3.752-8.393-8.393-8.393h-8.393c-4.642,0-8.393,3.76-8.393,8.393     S104.473,41.967,109.115,41.967z" data-original="#000000" class="active-path" data-old_color="#1b355c" fill="#1b355c"/>
			<path d="M486.87,224.683c6.933-4.642,16.737-11.541,16.737-21.831v-26.54c0-7.05-3.978-15.217-8.393-20.698v-20.211     c0-0.68-1.116-68.172-83.943-68.255c-82.81,0.084-83.926,67.576-83.926,68.281v20.186c-4.415,5.481-8.393,13.648-8.393,20.698     v26.54c0,10.29,9.804,17.19,16.737,21.831c5.758,22.444,18.919,36.36,25.256,41.984l0.126,20.279     c0,5.783-6.69,17.66-11.541,20.488c-0.495,0.294-0.957,0.63-1.377,1.007l-21.873,19.674c-6.228,4.591-8.83,12.649-6.463,20.262     c2.35,7.621,8.863,12.54,16.594,12.54h149.739c7.73,0,14.244-4.919,16.594-12.54c2.367-7.613-0.235-15.671-6.463-20.262     l-21.873-19.674c-0.42-0.378-0.881-0.713-1.377-1.007c-4.793-2.795-11.39-14.672-11.39-20.488v-20.295     C467.985,261.002,481.12,247.102,486.87,224.683z M463.738,321.426l21.663,19.49c0.277,0.243,0.562,0.47,0.881,0.68     c0.176,0.126,0.571,0.395,0.529,1.234c-0.025,0.722-0.378,1.217-0.663,1.301l-149.89-0.008c-0.134-0.076-0.487-0.571-0.512-1.293     c-0.042-0.839,0.353-1.108,0.529-1.234c0.319-0.21,0.604-0.436,0.881-0.68l21.664-19.49c9.728-6.295,19.036-23.006,19.036-34.531     l-0.151-24.249c-0.017-2.669-1.335-5.196-3.492-6.765c-0.176-0.126-17.526-12.993-22.906-38.089     c-0.436-2.09-1.67-3.928-3.433-5.145l-2.132-1.435c-2.317-1.544-9.359-6.245-10.005-8.36v-26.54c0-2.77,3.047-8.763,5.833-11.449     c1.637-1.578,2.56-3.76,2.56-6.035v-23.384c0.008-2.098,0.881-51.443,67.139-51.511c65.771,0.067,67.131,49.454,67.156,51.494     v23.401c0,2.275,0.923,4.457,2.56,6.035c2.787,2.686,5.833,8.679,5.833,11.449l0.025,26.288     c-0.671,2.367-7.714,7.067-10.03,8.612l-2.132,1.435c-1.763,1.217-2.997,3.055-3.433,5.145     c-5.38,25.096-22.729,37.964-22.872,38.064c-2.216,1.578-3.525,4.121-3.525,6.832v24.257     C444.852,298.462,454.085,315.165,463.738,321.426z" data-original="#000000" class="active-path" data-old_color="#1b355c" fill="#1b355c"/>
			<path d="M234.19,374.223c2.249-7.227-0.176-14.882-6.035-19.271l-19.657-17.861c-0.42-0.386-0.89-0.722-1.385-1.024     c-5.372-3.164-14.051-14.252-14.059-17.979v-19.531c7.386-4.877,21.328-16.401,26.783-36.612     c6.371-4.306,15.184-10.685,15.184-20.304v-24.131c0-7.143-4.625-14.563-8.393-19.12v-17.937c0-0.982,0.101-24.324-17.786-42.471     c-13.362-13.555-32.793-20.446-57.764-20.472c-24.962,0.025-44.393,6.916-57.755,20.472     c-17.886,18.147-17.786,41.489-17.786,42.362v18.046c-3.769,4.558-8.385,11.977-8.385,19.12v24.131     c0,9.619,8.805,15.998,15.175,20.304c5.464,20.211,19.397,31.727,26.783,36.612v19.531c-0.008,3.727-8.687,14.814-14.059,17.979     c-0.495,0.302-0.965,0.638-1.385,1.024l-19.657,17.861c-5.859,4.39-8.284,12.045-6.035,19.271     c2.249,7.218,8.419,11.877,15.729,11.877H218.46C225.771,386.099,231.94,381.441,234.19,374.223z M84.132,369.514     c-0.092-0.109-0.235-0.487-0.05-1.133c0.311-0.21,0.596-0.445,0.881-0.697l19.431-17.66c7.772-5.036,21.512-19.892,21.512-31.937     v-24.316c0-3.215-1.847-6.161-4.751-7.563c-0.185-0.084-18.55-9.166-23.225-31.14c-0.436-2.082-1.662-3.911-3.408-5.128     l-1.931-1.326c-2.182-1.469-7.982-5.38-8.662-6.975v-24.131c0-1.779,2.904-6.992,5.875-9.888     c1.612-1.578,2.526-3.743,2.526-6.001v-21.387c0-0.176,0.126-17.475,12.943-30.468c10.106-10.248,25.516-15.452,45.803-15.469     c20.195,0.017,35.555,5.17,45.652,15.31c13.001,13.043,13.111,30.493,13.111,30.737v21.277c0,2.258,0.906,4.423,2.518,6.001     c2.971,2.896,5.875,8.108,5.875,9.888l0.05,23.686c-0.73,2.04-6.53,5.951-8.712,7.42l-1.93,1.326     c-1.746,1.217-2.971,3.055-3.408,5.137c-4.6,21.68-22.503,30.779-23.225,31.131c-2.904,1.402-4.742,4.348-4.742,7.563v24.316     c0,12.045,13.732,26.901,21.504,31.937l19.431,17.66c0.285,0.252,0.713,0.755,1.024,0.974c0.034,0.285-0.042,0.588,0.076,0.655     L84.132,369.514z" data-original="#000000" class="active-path" data-old_color="#1b355c" fill="#1b355c"/>
			<path d="M50.361,125.902c4.642,0,8.393-3.76,8.393-8.393v-16.787h16.787c4.642,0,8.393-3.76,8.393-8.393     s-3.752-8.393-8.393-8.393h-25.18c-4.642,0-8.393,3.76-8.393,8.393v25.18C41.967,122.141,45.719,125.902,50.361,125.902z" data-original="#000000" class="active-path" data-old_color="#1b355c" fill="#1b355c"/>
			<path d="M251.803,83.935h-25.18c-4.642,0-8.393,3.76-8.393,8.393s3.752,8.393,8.393,8.393h16.787v16.787     c0,4.633,3.752,8.393,8.393,8.393c4.642,0,8.393-3.76,8.393-8.393v-25.18C260.197,87.695,256.445,83.935,251.803,83.935z" data-original="#000000" class="active-path" data-old_color="#1b355c" fill="#1b355c"/>
			<path d="M251.803,377.705c-4.642,0-8.393,3.76-8.393,8.393v16.787h-16.787c-4.642,0-8.393,3.76-8.393,8.393     s3.752,8.393,8.393,8.393h25.18c4.642,0,8.393-3.76,8.393-8.393v-25.18C260.197,381.465,256.445,377.705,251.803,377.705z" data-original="#000000" class="active-path" data-old_color="#1b355c" fill="#1b355c"/>
			<path d="M75.541,402.885H58.754v-16.787c0-4.633-3.752-8.393-8.393-8.393c-4.642,0-8.393,3.76-8.393,8.393v25.18     c0,4.633,3.752,8.393,8.393,8.393h25.18c4.642,0,8.393-3.76,8.393-8.393S80.183,402.885,75.541,402.885z" data-original="#000000" class="active-path" data-old_color="#1b355c" fill="#1b355c"/>
			<path d="M184.656,251.803c0-4.633-3.752-8.393-8.393-8.393h-16.787v-16.787c0-4.633-3.752-8.393-8.393-8.393     c-4.642,0-8.393,3.76-8.393,8.393v16.787h-16.787c-4.642,0-8.393,3.76-8.393,8.393c0,4.633,3.752,8.393,8.393,8.393h16.787     v16.787c0,4.633,3.752,8.393,8.393,8.393c4.642,0,8.393-3.76,8.393-8.393v-16.787h16.787     C180.904,260.197,184.656,256.437,184.656,251.803z" data-original="#000000" class="active-path" data-old_color="#1b355c" fill="#1b355c"/>
		</g>
	</g>
</g></g> </svg>
