<?xml version="1.0"?>
<svg xmlns="http://www.w3.org/2000/svg" xmlns:xlink="http://www.w3.org/1999/xlink" version="1.1" id="Layer_1" x="0px" y="0px" viewBox="0 0 512 512" style="enable-background:new 0 0 512 512;" xml:space="preserve" width="512px" height="512px"><g><g>
	<g>
		<path d="M85.333,238.933C38.4,238.933,0,277.333,0,324.267S38.4,409.6,85.333,409.6c46.933,0,85.333-38.4,85.333-85.333    S132.267,238.933,85.333,238.933z M85.333,392.533c-37.547,0-68.267-30.72-68.267-68.267S47.787,256,85.333,256    c37.547,0,68.267,30.72,68.267,68.267S122.88,392.533,85.333,392.533z" data-original="#000000" class="active-path" data-old_color="#1b355c" fill="#1b355c"/>
	</g>
</g><g>
	<g>
		<path d="M91.307,369.493l-25.6-25.6c-3.413-3.413-8.533-3.413-11.947,0c-3.413,3.413-3.413,8.533,0,11.947l25.6,25.6    c3.413,3.413,8.533,3.413,11.947,0C94.72,378.027,94.72,372.907,91.307,369.493z" data-original="#000000" class="active-path" data-old_color="#1b355c" fill="#1b355c"/>
	</g>
</g><g>
	<g>
		<path d="M116.907,343.893c-3.413-3.413-8.533-3.413-11.947,0l-25.6,25.6c-3.413,3.413-3.413,8.533,0,11.947    c3.413,3.413,8.533,3.413,11.947,0l25.6-25.6C120.32,352.427,120.32,347.307,116.907,343.893z" data-original="#000000" class="active-path" data-old_color="#1b355c" fill="#1b355c"/>
	</g>
</g><g>
	<g>
		<path d="M85.333,366.933c-5.12,0-8.533,4.267-8.533,8.533v119.467c0,5.12,3.413,8.533,8.533,8.533c5.12,0,8.533-3.413,8.533-8.533    V375.467C93.867,370.347,90.453,366.933,85.333,366.933z" data-original="#000000" class="active-path" data-old_color="#1b355c" fill="#1b355c"/>
	</g>
</g><g>
	<g>
		<path d="M202.24,369.493l-17.067-17.067c-3.413-3.413-8.533-3.413-11.947,0c-3.413,3.413-3.413,8.533,0,11.947l17.067,17.067    c3.413,3.413,8.533,3.413,11.947,0C205.653,378.027,205.653,372.907,202.24,369.493z" data-original="#000000" class="active-path" data-old_color="#1b355c" fill="#1b355c"/>
	</g>
</g><g>
	<g>
		<path d="M219.307,352.427c-3.413-3.413-8.533-3.413-11.947,0l-17.067,17.067c-3.413,3.413-3.413,8.533,0,11.947    c3.413,3.413,8.533,3.413,11.947,0l17.067-17.067C222.72,360.96,222.72,355.84,219.307,352.427z" data-original="#000000" class="active-path" data-old_color="#1b355c" fill="#1b355c"/>
	</g>
</g><g>
	<g>
		<path d="M196.267,366.933c-5.12,0-8.533,4.267-8.533,8.533v119.467c0,5.12,3.413,8.533,8.533,8.533s8.533-3.413,8.533-8.533    V375.467C204.8,370.347,201.387,366.933,196.267,366.933z" data-original="#000000" class="active-path" data-old_color="#1b355c" fill="#1b355c"/>
	</g>
</g><g>
	<g>
		<path d="M309.76,397.653L195.413,133.12c-2.56-6.827-11.947-6.827-15.36-0.853l-64,121.173c-2.56,4.267-0.853,9.387,3.413,11.093    c21.333,11.947,34.133,34.133,34.133,58.88c0,30.72-20.48,57.173-48.64,65.707c-9.387,3.413-13.653,2.56-15.36,3.413    c-7.68,5.973-4.267,17.067,4.267,17.067H302.08C308.053,409.6,312.32,403.627,309.76,397.653z M136.533,393.387    c21.333-16.213,34.133-41.813,34.133-69.12c0-28.16-13.653-53.76-35.84-69.12l52.053-98.133l102.4,236.373H136.533z" data-original="#000000" class="active-path" data-old_color="#1b355c" fill="#1b355c"/>
	</g>
</g><g>
	<g>
		<path d="M379.733,150.187L321.707,38.4c-3.413-5.973-11.947-5.973-15.36,0l-57.173,111.787c-1.707,3.413-0.853,7.68,1.707,10.24    l23.893,24.747c3.413,3.413,8.533,3.413,11.947,0l11.093-11.093l10.24,11.093c3.413,3.413,8.533,3.413,11.947,0l11.093-11.093    l11.093,11.093c3.413,3.413,8.533,3.413,11.947,0l23.893-24.747C380.587,157.867,381.44,153.6,379.733,150.187z M347.307,167.253    l-11.093-11.093c-3.413-3.413-8.533-3.413-11.947,0l-11.093,11.093L302.08,156.16c-3.413-3.413-8.533-3.413-11.947,0    l-11.093,11.093l-11.947-14.507l46.933-91.307l46.933,92.16L347.307,167.253z" data-original="#000000" class="active-path" data-old_color="#1b355c" fill="#1b355c"/>
	</g>
</g><g>
	<g>
		<path d="M510.293,397.653L322.56,39.253c-3.413-5.973-11.947-5.973-15.36,0L215.893,215.04c-0.853,2.56-1.707,5.12,0,7.68    L294.4,404.48c1.707,4.267,6.827,5.973,11.093,4.267s5.973-6.827,4.267-11.093l-76.8-178.347L315.733,61.44l180.053,343.893    c2.56,4.267,7.68,5.973,11.093,3.413S512.853,401.067,510.293,397.653z" data-original="#000000" class="active-path" data-old_color="#1b355c" fill="#1b355c"/>
	</g>
</g><g>
	<g>
		<path d="M469.333,42.667h-68.267c-4.267,0-8.533-4.267-8.533-8.533s4.267-8.533,8.533-8.533H435.2c5.12,0,8.533-3.413,8.533-8.533    s-3.413-8.533-8.533-8.533h-34.133c-14.507,0-25.6,11.093-25.6,25.6c0,14.507,11.093,25.6,25.6,25.6h68.267    c9.387,0,17.067,7.68,17.067,17.067c0,5.12,3.413,8.533,8.533,8.533s8.533-3.413,8.533-8.533    C503.467,58.027,488.107,42.667,469.333,42.667z" data-original="#000000" class="active-path" data-old_color="#1b355c" fill="#1b355c"/>
	</g>
</g><g>
	<g>
		<path d="M503.467,477.867c-5.12,0-8.533,4.267-8.533,8.533v8.533c0,5.12,3.413,8.533,8.533,8.533s8.533-3.413,8.533-8.533V486.4    C512,481.28,508.587,477.867,503.467,477.867z" data-original="#000000" class="active-path" data-old_color="#1b355c" fill="#1b355c"/>
	</g>
</g><g>
	<g>
		<path d="M469.333,477.867c-5.12,0-8.533,4.267-8.533,8.533v8.533c0,5.12,3.413,8.533,8.533,8.533s8.533-3.413,8.533-8.533V486.4    C477.867,481.28,474.453,477.867,469.333,477.867z" data-original="#000000" class="active-path" data-old_color="#1b355c" fill="#1b355c"/>
	</g>
</g><g>
	<g>
		<path d="M435.2,477.867c-5.12,0-8.533,4.267-8.533,8.533v8.533c0,5.12,3.413,8.533,8.533,8.533s8.533-3.413,8.533-8.533V486.4    C443.733,481.28,440.32,477.867,435.2,477.867z" data-original="#000000" class="active-path" data-old_color="#1b355c" fill="#1b355c"/>
	</g>
</g><g>
	<g>
		<path d="M401.067,477.867c-5.12,0-8.533,4.267-8.533,8.533v8.533c0,5.12,3.413,8.533,8.533,8.533c5.12,0,8.533-3.413,8.533-8.533    V486.4C409.6,481.28,406.187,477.867,401.067,477.867z" data-original="#000000" class="active-path" data-old_color="#1b355c" fill="#1b355c"/>
	</g>
</g><g>
	<g>
		<path d="M366.933,477.867c-5.12,0-8.533,4.267-8.533,8.533v8.533c0,5.12,3.413,8.533,8.533,8.533s8.533-3.413,8.533-8.533V486.4    C375.467,481.28,372.053,477.867,366.933,477.867z" data-original="#000000" class="active-path" data-old_color="#1b355c" fill="#1b355c"/>
	</g>
</g><g>
	<g>
		<path d="M332.8,477.867c-5.12,0-8.533,4.267-8.533,8.533v8.533c0,5.12,3.413,8.533,8.533,8.533c5.12,0,8.533-3.413,8.533-8.533    V486.4C341.333,481.28,337.92,477.867,332.8,477.867z" data-original="#000000" class="active-path" data-old_color="#1b355c" fill="#1b355c"/>
	</g>
</g><g>
	<g>
		<path d="M298.667,477.867c-5.12,0-8.533,4.267-8.533,8.533v8.533c0,5.12,3.413,8.533,8.533,8.533s8.533-3.413,8.533-8.533V486.4    C307.2,481.28,303.787,477.867,298.667,477.867z" data-original="#000000" class="active-path" data-old_color="#1b355c" fill="#1b355c"/>
	</g>
</g><g>
	<g>
		<path d="M264.533,477.867c-5.12,0-8.533,4.267-8.533,8.533v8.533c0,5.12,3.413,8.533,8.533,8.533s8.533-3.413,8.533-8.533V486.4    C273.067,481.28,269.653,477.867,264.533,477.867z" data-original="#000000" class="active-path" data-old_color="#1b355c" fill="#1b355c"/>
	</g>
</g><g>
	<g>
		<path d="M230.4,477.867c-5.12,0-8.533,4.267-8.533,8.533v8.533c0,5.12,3.413,8.533,8.533,8.533s8.533-3.413,8.533-8.533V486.4    C238.933,481.28,235.52,477.867,230.4,477.867z" data-original="#000000" class="active-path" data-old_color="#1b355c" fill="#1b355c"/>
	</g>
</g><g>
	<g>
		<path d="M162.133,477.867c-5.12,0-8.533,4.267-8.533,8.533v8.533c0,5.12,3.413,8.533,8.533,8.533s8.533-3.413,8.533-8.533V486.4    C170.667,481.28,167.253,477.867,162.133,477.867z" data-original="#000000" class="active-path" data-old_color="#1b355c" fill="#1b355c"/>
	</g>
</g><g>
	<g>
		<path d="M119.467,477.867c-5.12,0-8.533,4.267-8.533,8.533v8.533c0,5.12,3.413,8.533,8.533,8.533s8.533-3.413,8.533-8.533V486.4    C128,481.28,124.587,477.867,119.467,477.867z" data-original="#000000" class="active-path" data-old_color="#1b355c" fill="#1b355c"/>
	</g>
</g><g>
	<g>
		<path d="M42.667,477.867c-5.12,0-8.533,4.267-8.533,8.533v8.533c0,5.12,3.413,8.533,8.533,8.533s8.533-3.413,8.533-8.533V486.4    C51.2,481.28,47.787,477.867,42.667,477.867z" data-original="#000000" class="active-path" data-old_color="#1b355c" fill="#1b355c"/>
	</g>
</g><g>
	<g>
		<path d="M8.533,477.867c-5.12,0-8.533,4.267-8.533,8.533v8.533c0,5.12,3.413,8.533,8.533,8.533s8.533-3.413,8.533-8.533V486.4    C17.067,481.28,13.653,477.867,8.533,477.867z" data-original="#000000" class="active-path" data-old_color="#1b355c" fill="#1b355c"/>
	</g>
</g><g>
	<g>
		<path d="M145.067,67.413c-3.413-33.28-23.893-50.347-52.907-50.347c-18.773,0-33.28,5.973-45.227,16.213    c-5.12,4.267-8.533,8.533-11.093,11.947C15.36,47.787,0,66.56,0,88.747c0,23.893,14.507,40.107,36.693,40.107h98.987    c17.92,0,34.987-11.947,34.987-29.013C170.667,83.627,159.573,69.973,145.067,67.413z M135.68,111.787H36.693    c-12.8,0-19.627-7.68-19.627-23.04c0-14.507,11.093-26.453,23.893-26.453c3.413,0,8.533-5.973,10.24-7.68    c1.707-2.56,4.267-5.973,7.68-8.533c8.533-7.68,19.627-11.947,34.133-11.947c21.333,0,34.987,12.8,34.987,40.96    c0,5.12,3.413,8.533,8.533,8.533h3.413c7.68,0,13.653,6.827,13.653,16.213C153.6,106.667,145.92,111.787,135.68,111.787z" data-original="#000000" class="active-path" data-old_color="#1b355c" fill="#1b355c"/>
	</g>
</g></g> </svg>
