<?xml version="1.0"?>
<svg xmlns="http://www.w3.org/2000/svg" xmlns:xlink="http://www.w3.org/1999/xlink" version="1.1" id="Layer_1" x="0px" y="0px" viewBox="0 0 512 512" style="enable-background:new 0 0 512 512;" xml:space="preserve" width="512px" height="512px" class=""><g><g transform="translate(1 1)">
	<g>
		<g>
			<path d="M462.36,405.187c28.927-40.654,45.666-87.041,48.271-136.531c0.023-0.425,0.042-0.85,0.063-1.275     c0.076-1.592,0.137-3.187,0.183-4.785c0.015-0.521,0.034-1.04,0.046-1.561c0.046-2.007,0.077-4.017,0.077-6.034     c0-2.254-0.032-4.501-0.09-6.742c-0.909-37.581-9.451-72.928-26.363-106.752c-0.379-0.757-0.806-1.416-1.269-2.005     C450.03,74.269,389.617,24.957,317.197,6.706c-1.322-0.336-2.646-0.661-3.975-0.976c-0.304-0.071-0.608-0.145-0.912-0.216     c-15.244-3.555-30.931-5.732-46.897-6.43C265.062-0.971,264.717-1,264.387-1h-2.56c-2.56,0-4.267,0-6.827,0     c-2.026,0-4.046,0.031-6.064,0.077c-0.305,0.007-0.611,0.014-0.916,0.022C160.346,1.406,81.416,47.083,35.693,122.733     c-16.11,27.042-27.168,56.414-32.669,87.065c-0.004,0.023-0.009,0.047-0.013,0.07c-0.722,4.029-1.347,8.079-1.875,12.149     c-0.041,0.318-0.082,0.635-0.123,0.953c-0.49,3.891-0.891,7.799-1.202,11.723c-0.036,0.45-0.07,0.9-0.104,1.351     c-0.144,1.94-0.273,3.882-0.372,5.829c0,0.006,0,0.012-0.001,0.019c-0.098,1.928-0.167,3.86-0.222,5.794     c-0.014,0.487-0.026,0.974-0.037,1.461C-0.97,251.096-1,253.046-1,255c0,1.951,0.03,3.899,0.075,5.847     c0.01,0.432,0.019,0.864,0.031,1.296c0.052,1.864,0.122,3.726,0.214,5.586c0.02,0.404,0.045,0.807,0.067,1.211     c0.089,1.635,0.193,3.269,0.313,4.9c0.027,0.369,0.05,0.739,0.079,1.108c0.145,1.858,0.313,3.713,0.498,5.566     c0.04,0.402,0.082,0.803,0.124,1.204c3.522,33.7,13.645,66.334,29.548,95.85c0.175,0.401,0.376,0.792,0.622,1.162     c0,0.001,0.001,0.002,0.001,0.002c0,0,0,0,0,0c29.716,52.894,75.992,92.95,130.749,114.415c0.042,0.016,0.083,0.033,0.125,0.049     c1.308,0.512,2.621,1.014,3.938,1.504c24.623,9.277,51.019,14.851,78.505,16.04c3.913,0.252,7.702,0.258,11.11,0.258     c1.981,0,3.959-0.03,5.935-0.076c0.347-0.008,0.694-0.014,1.041-0.023c1.854-0.05,3.705-0.122,5.553-0.213     c0.438-0.021,0.876-0.045,1.313-0.069c1.83-0.099,3.658-0.212,5.482-0.35c0.352-0.027,0.703-0.059,1.055-0.087     c1.633-0.13,3.263-0.277,4.891-0.438c0.386-0.038,0.772-0.073,1.157-0.113c1.784-0.185,3.563-0.393,5.339-0.615     c0.455-0.057,0.911-0.114,1.365-0.174c1.815-0.237,3.626-0.491,5.433-0.766c0.267-0.041,0.533-0.084,0.799-0.126     c59.34-9.232,114.036-39.138,153.586-85.175c4.649-5.335,9.073-10.869,13.275-16.576     C461.631,405.87,462.017,405.53,462.36,405.187z M414.187,432.781c-1.212,1.088-2.432,2.166-3.665,3.229     c-0.611,0.526-1.231,1.043-1.847,1.563c-0.92,0.777-1.843,1.551-2.774,2.314c-0.736,0.602-1.478,1.197-2.221,1.791     c-0.836,0.668-1.675,1.332-2.519,1.988c-0.793,0.617-1.589,1.229-2.39,1.835c-0.825,0.625-1.656,1.243-2.488,1.857     c-0.81,0.597-1.62,1.194-2.437,1.781c-0.874,0.628-1.755,1.244-2.637,1.859c-0.779,0.544-1.556,1.092-2.342,1.627     c-1.045,0.711-2.101,1.406-3.157,2.101c-0.629,0.414-1.253,0.836-1.886,1.244c-3.495,2.252-7.045,4.413-10.649,6.477     c-0.185,0.106-0.373,0.207-0.558,0.313c-1.65,0.939-3.31,1.862-4.981,2.762c-0.238,0.128-0.479,0.252-0.718,0.38     c-1.649,0.88-3.307,1.744-4.976,2.586c-0.201,0.102-0.404,0.201-0.606,0.302c-1.746,0.874-3.501,1.728-5.268,2.559     c-0.111,0.052-0.222,0.104-0.333,0.156c-19.39,9.079-40.017,15.555-61.368,19.145c-0.064,0.011-0.127,0.021-0.191,0.032     c-1.989,0.333-3.985,0.637-5.986,0.919c-0.222,0.031-0.445,0.063-0.667,0.094c-1.838,0.254-3.682,0.483-5.53,0.694     c-0.351,0.04-0.7,0.083-1.052,0.121c-1.718,0.189-3.441,0.352-5.166,0.504c-0.458,0.04-0.915,0.086-1.374,0.123     c-1.631,0.133-3.266,0.241-4.903,0.341c-0.533,0.032-1.065,0.073-1.599,0.102c-1.621,0.088-3.247,0.149-4.874,0.203     c-0.532,0.018-1.062,0.047-1.595,0.061c-2.14,0.058-4.283,0.089-6.431,0.089c-4.362,0-8.696-0.127-13.002-0.361L194.413,408.6     H331.8h105.813c-7.031,8.357-14.578,16.176-22.576,23.426C414.756,432.281,414.469,432.528,414.187,432.781z M16.176,261.956     c-0.003-0.094-0.008-0.188-0.011-0.282c-0.065-2.227-0.099-4.452-0.099-6.673c0-1.8,0.029-3.593,0.069-5.384     c0.011-0.477,0.022-0.954,0.035-1.431c0.048-1.694,0.111-3.384,0.194-5.069c0.025-0.495,0.058-0.99,0.086-1.485     c0.07-1.244,0.149-2.485,0.238-3.724c0.048-0.672,0.095-1.344,0.149-2.016c0.123-1.537,0.259-3.07,0.412-4.599     c0.063-0.638,0.136-1.275,0.204-1.912c0.132-1.22,0.271-2.439,0.421-3.654c0.062-0.503,0.121-1.007,0.186-1.51     c0.232-1.785,0.481-3.564,0.752-5.337c0.017-0.111,0.035-0.221,0.052-0.331c4.614-29.815,14.798-57.852,29.438-83.015h115.391     L96.587,257.251c-1.129,0.731-2.091,1.705-2.867,2.869l-53.936,98.355c-5.874-12.126-10.75-24.815-14.523-37.958     C19.904,301.397,16.775,281.6,16.176,261.956z M230.696,17.303c1.638-0.167,3.285-0.308,4.932-0.442     c0.755-0.06,1.509-0.119,2.266-0.172c1.271-0.091,2.545-0.173,3.822-0.244c1.242-0.068,2.486-0.121,3.732-0.17     c0.929-0.037,1.857-0.081,2.789-0.107c2.249-0.062,4.502-0.102,6.763-0.102c1.149,0,2.293,0.027,3.438,0.044l58.002,102.356     H178.2H59.228c38.887-55.49,100.683-93.896,171.363-101.152C230.626,17.311,230.661,17.307,230.696,17.303z M493.86,260.758     c-0.007,0.305-0.017,0.609-0.025,0.913c-1.337,48.123-17.09,92.801-43.063,129.862H346.307l129.514-227.502     c11.657,28.076,18.113,58.803,18.113,90.968C493.933,256.925,493.906,258.844,493.86,260.758z M183.768,391.533l-71.792-126.317     l71.549-129.683h143.296l72.516,127.97l-72.793,128.03H183.768z M102.403,282.569L221.72,491.373     c-70.798-10.236-133.921-52.02-171.473-114.271L102.403,282.569z M409.239,246.09L281.976,22.339l-2.851-5.052     c81.511,8.269,151.243,57.959,187.695,127.53L409.239,246.09z" data-original="#000000" class="active-path" data-old_color="#1b355c" fill="#1b355c"/>
			<path d="M255,178.2c-42.667,0-76.8,34.133-76.8,76.8c0,42.667,34.133,76.8,76.8,76.8c42.667,0,76.8-34.133,76.8-76.8     C331.8,212.333,297.667,178.2,255,178.2z M255,314.733c-33.28,0-59.733-26.453-59.733-59.733     c0-33.28,26.453-59.733,59.733-59.733c33.28,0,59.733,26.453,59.733,59.733C314.733,288.28,288.28,314.733,255,314.733z" data-original="#000000" class="active-path" data-old_color="#1b355c" fill="#1b355c"/>
		</g>
	</g>
</g></g> </svg>
