<?xml version="1.0"?>
<svg xmlns="http://www.w3.org/2000/svg" xmlns:xlink="http://www.w3.org/1999/xlink" version="1.1" id="Capa_1" x="0px" y="0px" viewBox="0 0 512 512" style="enable-background:new 0 0 512 512;" xml:space="preserve" width="512px" height="512px"><g><g>
	<g>
		<g>
			<path d="M273.069,204.799c4.719,0,8.533-3.823,8.533-8.533c0-2.697,4.949-8.354,7.441-8.533h18.159     c4.719,0,8.533-3.823,8.533-8.533c0-9.728,7.33-17.067,17.067-17.067c9.737,0,17.067,7.339,17.067,17.067     c0,4.71,3.814,8.533,8.533,8.533s8.533-3.823,8.533-8.533c0-19.14-14.993-34.133-34.133-34.133     c-16.179,0-29.397,10.718-33.101,25.6h-10.658c-12.621,0-24.508,14.421-24.508,25.6     C264.536,200.976,268.35,204.799,273.069,204.799z" data-original="#000000" class="active-path" data-old_color="#1b355c" fill="#1b355c"/>
			<path d="M443.736,93.87H68.269c-4.719,0-8.533,3.814-8.533,8.533v307.2c0,4.71,3.814,8.533,8.533,8.533h375.467     c4.719,0,8.533-3.823,8.533-8.533v-307.2C452.269,97.684,448.455,93.87,443.736,93.87z M435.203,110.937v134.127     c-12.744,20.062-41.274,37.974-81.37,51.22c-14.161-28.869-50.558-48.815-91.676-48.815c-35.202,0-67.056,14.304-84.448,37.175     c-5.11-3.179-10.301-6.204-15.572-9.058V247.47v-0.729c24.186-4.075,42.667-25.147,42.667-50.476c0-28.237-22.963-51.2-51.2-51.2     c-28.237,0-51.2,22.963-51.2,51.2c0,25.328,18.481,46.401,42.667,50.476v0.729V267.1c-21.494-9.735-44.249-16.45-68.267-18.939     V110.937H435.203z M222.427,315.753c-0.709-0.042-1.395,0.006-2.057,0.12c-9.14-7.688-18.591-15.009-28.358-21.808     c14.323-17.957,41.184-29.529,70.144-29.529c33.484,0,62.985,14.935,75.093,36.773     C298.243,312.133,253.549,317.796,222.427,315.753z M153.603,213.333l0.003,0.003h-0.007L153.603,213.333z M162.136,216.866     l14.566-14.566l-12.066-12.066l-11.034,11.034l-11.034-11.034L130.503,202.3l14.566,14.566v12.453     c-14.707-3.798-25.6-17.175-25.6-33.054c0-18.825,15.309-34.133,34.133-34.133c18.825,0,34.133,15.309,34.133,34.133     c0,15.879-10.893,29.256-25.6,33.054V216.866z M76.803,265.321c24.005,2.725,46.77,10.097,68.267,20.671v38.274     c0,4.71,3.814,8.533,8.533,8.533c4.719,0,8.533-3.823,8.533-8.533v-29.081c45.698,26.775,85.229,67.138,118.257,105.885H76.803     V265.321z M302.69,401.07c-18.736-22.571-39.699-46.163-62.889-67.91c57.956-0.971,151.245-20.215,195.402-61.795V401.07H302.69z     " data-original="#000000" class="active-path" data-old_color="#1b355c" fill="#1b355c"/>
			<path d="M503.467,409.6c0-12.245-6.656-23.424-17.067-29.449V131.849c10.411-6.025,17.067-17.212,17.067-29.449     c0-3.405-0.512-6.741-1.544-9.975C508.331,86.093,512,77.474,512,68.267c0-18.825-15.309-34.133-34.133-34.133     c-9.207,0-17.826,3.669-24.158,10.078c-3.243-1.033-6.571-1.544-9.976-1.544c-12.245,0-23.432,6.656-29.449,17.067H97.715     c-6.016-10.411-17.195-17.067-29.449-17.067c-3.396,0-6.733,0.512-9.975,1.544c-6.332-6.409-14.95-10.078-24.158-10.078     C15.309,34.133,0,49.442,0,68.267c0,9.207,3.678,17.826,10.086,24.158c-1.033,3.234-1.553,6.571-1.553,9.975     c0,12.237,6.665,23.424,17.067,29.449v248.303C15.198,386.176,8.533,397.355,8.533,409.6c0,3.405,0.521,6.733,1.553,9.975     C3.678,425.907,0,434.526,0,443.733c0,18.816,15.309,34.133,34.133,34.133c9.207,0,17.826-3.669,24.158-10.078     c3.243,1.024,6.579,1.545,9.975,1.545c12.254,0,23.433-6.656,29.449-17.067h316.57c6.016,10.411,17.203,17.067,29.449,17.067     c3.405,0,6.733-0.521,9.976-1.545c6.332,6.409,14.95,10.078,24.158,10.078c18.825,0,34.133-15.317,34.133-34.133     c0-9.207-3.669-17.826-10.078-24.158C502.955,416.333,503.467,413.005,503.467,409.6z M477.867,460.8     c-5.828,0-11.204-2.987-14.37-7.979c-1.621-2.551-4.386-3.968-7.219-3.968c-1.425,0-2.867,0.358-4.19,1.109     c-9.54,5.385-20.966,0.427-24.346-9.088c-1.203-3.396-4.429-5.675-8.038-5.675H92.305c-3.61,0-6.835,2.278-8.047,5.675     c-3.371,9.515-14.805,14.473-24.337,9.088c-3.968-2.253-8.986-0.981-11.409,2.859c-3.166,4.992-8.542,7.979-14.379,7.979     c-9.404,0-17.067-7.654-17.067-17.067c0-5.837,2.987-11.213,7.987-14.379c3.849-2.441,5.094-7.467,2.85-11.435     c-1.527-2.679-2.304-5.478-2.304-8.32c0-7.142,4.574-13.568,11.392-16c3.405-1.203,5.675-4.429,5.675-8.038V126.43     c0-3.61-2.27-6.827-5.675-8.038C30.174,115.968,25.6,109.542,25.6,102.4c0-2.842,0.777-5.641,2.304-8.328     c2.244-3.959,0.998-8.986-2.85-11.426c-5.001-3.166-7.987-8.542-7.987-14.379c0-9.412,7.663-17.067,17.067-17.067     c5.837,0,11.213,2.987,14.379,7.979c2.423,3.831,7.441,5.094,11.409,2.859c9.532-5.385,20.966-0.427,24.337,9.088     c1.212,3.396,4.437,5.675,8.047,5.675h327.398c3.61,0,6.835-2.278,8.038-5.675c3.379-9.515,14.805-14.473,24.346-9.088     c3.951,2.236,8.977,0.973,11.409-2.859c3.166-4.992,8.542-7.979,14.37-7.979c9.412,0,17.067,7.654,17.067,17.067     c0,5.837-2.978,11.213-7.979,14.379c-3.849,2.441-5.103,7.467-2.85,11.426c1.519,2.688,2.295,5.487,2.295,8.328     c0,7.142-4.574,13.568-11.392,15.992c-3.396,1.212-5.675,4.429-5.675,8.038v259.132c0,3.61,2.278,6.835,5.675,8.038     c6.818,2.432,11.392,8.858,11.392,16c0,2.842-0.777,5.641-2.295,8.32c-2.253,3.968-0.998,8.994,2.85,11.435     c5,3.166,7.979,8.542,7.979,14.379C494.933,453.146,487.279,460.8,477.867,460.8z" data-original="#000000" class="active-path" data-old_color="#1b355c" fill="#1b355c"/>
		</g>
	</g>
</g></g> </svg>
