<?xml version="1.0"?>
<svg xmlns="http://www.w3.org/2000/svg" xmlns:xlink="http://www.w3.org/1999/xlink" version="1.1" id="Layer_1" x="0px" y="0px" viewBox="0 0 512 512" style="enable-background:new 0 0 512 512;" xml:space="preserve" width="512px" height="512px"><g><g transform="translate(1 1)">
	<g>
		<g>
			<path d="M472.6,11.8H37.4C16.067,11.8-1,28.867-1,50.2v277.333v38.4c0,21.333,17.067,38.4,38.4,38.4h152.157     c1.209,14.852-5.492,29.407-17.331,37.547l-15.36,11.093c-1.236,0.742-2.25,1.703-3.036,2.792     c-10.459,1.439-18.298,10.191-18.298,21.102c0,11.947,9.387,21.333,21.333,21.333h196.267c11.947,0,21.333-9.387,21.333-21.333     c0-11.42-8.584-20.478-19.775-21.257c-0.664-1.024-1.47-1.93-2.412-2.636l-15.36-11.093     c-12.057-8.289-18.113-22.568-17.016-37.547H472.6c21.333,0,38.4-17.067,38.4-38.4v-38.4V50.2     C511,28.867,493.933,11.8,472.6,11.8z M16.067,50.2c0-11.947,9.387-21.333,21.333-21.333h435.2     c11.947,0,21.333,9.387,21.333,21.333v260.267H16.067V50.2z M353.133,481.133H156.867c-2.56,0-4.267-1.707-4.267-4.267     s1.707-4.267,4.267-4.267h5.973h184.32h5.973c2.56,0,4.267,1.707,4.267,4.267S355.693,481.133,353.133,481.133z M325.827,455.533     H183.32c16.213-11.947,24.747-31.573,23.893-51.2h95.573C301.08,423.96,310.467,443.587,325.827,455.533z M493.933,365.933     c0,11.947-9.387,21.333-21.333,21.333H326.68h-140.8H37.4c-11.947,0-21.333-9.387-21.333-21.333v-38.4h477.867V365.933z" data-original="#000000" class="active-path" data-old_color="#1b355c" fill="#1b355c"/>
			<path d="M229.4,148.333h-37.181L168.813,93.72c-1.707-4.267-6.827-5.973-11.093-4.267s-5.973,6.827-4.267,11.093l20.48,47.787     h-76.8l20.48-47.787c1.707-4.267,0-9.387-4.267-11.093s-9.387,0-11.093,4.267l-23.406,54.613H41.667     c-2.56,0-5.12,1.707-6.827,3.413c-1.707,2.56-2.56,5.12-0.853,7.68l34.133,102.4c0.853,3.413,4.267,5.973,7.68,5.973h119.467     c3.413,0,6.827-2.56,7.68-5.973l34.133-102.4c0.853-2.56,0.853-5.12-0.853-7.68C234.52,150.04,231.96,148.333,229.4,148.333z      M189.293,250.733H81.773L53.613,165.4h163.84L189.293,250.733z" data-original="#000000" class="active-path" data-old_color="#1b355c" fill="#1b355c"/>
			<path d="M263.533,105.667h85.333c5.12,0,8.533-3.413,8.533-8.533c0-5.12-3.413-8.533-8.533-8.533h-85.333     c-5.12,0-8.533,3.413-8.533,8.533C255,102.253,258.413,105.667,263.533,105.667z" data-original="#000000" class="active-path" data-old_color="#1b355c" fill="#1b355c"/>
			<path d="M383,105.667h34.133c5.12,0,8.533-3.413,8.533-8.533c0-5.12-3.413-8.533-8.533-8.533H383     c-5.12,0-8.533,3.413-8.533,8.533C374.467,102.253,377.88,105.667,383,105.667z" data-original="#000000" class="active-path" data-old_color="#1b355c" fill="#1b355c"/>
			<path d="M468.333,88.6h-17.067c-5.12,0-8.533,3.413-8.533,8.533c0,5.12,3.413,8.533,8.533,8.533h17.067     c5.12,0,8.533-3.413,8.533-8.533C476.867,92.013,473.453,88.6,468.333,88.6z" data-original="#000000" class="active-path" data-old_color="#1b355c" fill="#1b355c"/>
			<path d="M263.533,216.6h85.333c5.12,0,8.533-3.413,8.533-8.533s-3.413-8.533-8.533-8.533h-85.333     c-5.12,0-8.533,3.413-8.533,8.533S258.413,216.6,263.533,216.6z" data-original="#000000" class="active-path" data-old_color="#1b355c" fill="#1b355c"/>
			<path d="M425.667,208.067c0-5.12-3.413-8.533-8.533-8.533H383c-5.12,0-8.533,3.413-8.533,8.533S377.88,216.6,383,216.6h34.133     C422.253,216.6,425.667,213.187,425.667,208.067z" data-original="#000000" class="active-path" data-old_color="#1b355c" fill="#1b355c"/>
			<path d="M468.333,199.533h-17.067c-5.12,0-8.533,3.413-8.533,8.533s3.413,8.533,8.533,8.533h17.067     c5.12,0,8.533-3.413,8.533-8.533S473.453,199.533,468.333,199.533z" data-original="#000000" class="active-path" data-old_color="#1b355c" fill="#1b355c"/>
			<path d="M468.333,250.733H408.6c-5.12,0-8.533,3.413-8.533,8.533c0,5.12,3.413,8.533,8.533,8.533h59.733     c5.12,0,8.533-3.413,8.533-8.533C476.867,254.147,473.453,250.733,468.333,250.733z" data-original="#000000" class="active-path" data-old_color="#1b355c" fill="#1b355c"/>
			<path d="M374.467,250.733h-51.2c-5.12,0-8.533,3.413-8.533,8.533c0,5.12,3.413,8.533,8.533,8.533h51.2     c5.12,0,8.533-3.413,8.533-8.533C383,254.147,379.587,250.733,374.467,250.733z" data-original="#000000" class="active-path" data-old_color="#1b355c" fill="#1b355c"/>
			<path d="M289.133,250.733h-25.6c-5.12,0-8.533,3.413-8.533,8.533c0,5.12,3.413,8.533,8.533,8.533h25.6     c5.12,0,8.533-3.413,8.533-8.533C297.667,254.147,294.253,250.733,289.133,250.733z" data-original="#000000" class="active-path" data-old_color="#1b355c" fill="#1b355c"/>
			<path d="M468.333,148.333H408.6c-5.12,0-8.533,3.413-8.533,8.533c0,5.12,3.413,8.533,8.533,8.533h59.733     c5.12,0,8.533-3.413,8.533-8.533C476.867,151.747,473.453,148.333,468.333,148.333z" data-original="#000000" class="active-path" data-old_color="#1b355c" fill="#1b355c"/>
			<path d="M314.733,156.867c0,5.12,3.413,8.533,8.533,8.533h51.2c5.12,0,8.533-3.413,8.533-8.533c0-5.12-3.413-8.533-8.533-8.533     h-51.2C318.147,148.333,314.733,151.747,314.733,156.867z" data-original="#000000" class="active-path" data-old_color="#1b355c" fill="#1b355c"/>
			<path d="M263.533,165.4h25.6c5.12,0,8.533-3.413,8.533-8.533c0-5.12-3.413-8.533-8.533-8.533h-25.6     c-5.12,0-8.533,3.413-8.533,8.533C255,161.987,258.413,165.4,263.533,165.4z" data-original="#000000" class="active-path" data-old_color="#1b355c" fill="#1b355c"/>
		</g>
	</g>
</g></g> </svg>
