<?xml version="1.0"?>
<svg xmlns="http://www.w3.org/2000/svg" xmlns:xlink="http://www.w3.org/1999/xlink" version="1.1" id="Layer_1" x="0px" y="0px" viewBox="0 0 512 512" style="enable-background:new 0 0 512 512;" xml:space="preserve" width="512px" height="512px"><g><g>
	<g>
		<path d="M354.133,453.973l-15.36-11.093c-13.653-9.387-20.48-27.307-16.213-44.373v-0.853v-9.387H186.88l2.56,10.24    c4.267,17.067-2.56,34.987-16.213,44.373l-15.36,11.093c-8.533,5.973-4.267,19.627,5.973,19.627h184.32    C358.4,473.6,362.667,459.947,354.133,453.973z M184.32,456.533c16.213-11.947,24.747-31.573,23.04-51.2    c0,0,96.427-3.413,96.427,0c-0.853,19.627,7.68,39.253,23.04,51.2C327.68,456.533,184.32,456.533,184.32,456.533z" data-original="#000000" class="active-path" data-old_color="#1b355c" fill="#1b355c"/>
	</g>
</g><g>
	<g>
		<path d="M473.6,12.8H38.4C17.067,12.8,0,29.867,0,51.2v277.333h512V51.2C512,29.867,494.933,12.8,473.6,12.8z M494.933,311.467    H17.067V51.2c0-11.947,9.387-21.333,21.333-21.333h435.2c11.947,0,21.333,9.387,21.333,21.333V311.467z" data-original="#000000" class="active-path" data-old_color="#1b355c" fill="#1b355c"/>
	</g>
</g><g>
	<g>
		<path d="M354.133,456.533H157.867c-11.947,0-21.333,9.387-21.333,21.333c0,11.947,9.387,21.333,21.333,21.333h196.267    c11.947,0,21.333-9.387,21.333-21.333C375.467,465.92,366.08,456.533,354.133,456.533z M354.133,482.133H157.867    c-2.56,0-4.267-1.707-4.267-4.267s1.707-4.267,4.267-4.267h196.267c2.56,0,4.267,1.707,4.267,4.267    S356.693,482.133,354.133,482.133z" data-original="#000000" class="active-path" data-old_color="#1b355c" fill="#1b355c"/>
	</g>
</g><g>
	<g>
		<path d="M0,311.467v55.467c0,21.333,17.067,38.4,38.4,38.4h435.2c21.333,0,38.4-17.067,38.4-38.4v-55.467H0z M494.933,366.933    c0,11.947-9.387,21.333-21.333,21.333H38.4c-11.947,0-21.333-9.387-21.333-21.333v-38.4h477.867V366.933z" data-original="#000000" class="active-path" data-old_color="#1b355c" fill="#1b355c"/>
	</g>
</g><g>
	<g>
		<path d="M247.467,209.067c-14.507,0-25.6,11.093-25.6,25.6c0,14.507,11.093,25.6,25.6,25.6s25.6-11.093,25.6-25.6    C273.067,220.16,261.973,209.067,247.467,209.067z M247.467,243.2c-5.12,0-8.533-3.413-8.533-8.533s3.413-8.533,8.533-8.533    s8.533,3.413,8.533,8.533S252.587,243.2,247.467,243.2z" data-original="#000000" class="active-path" data-old_color="#1b355c" fill="#1b355c"/>
	</g>
</g><g>
	<g>
		<path d="M304.64,177.493c-3.413-3.413-8.533-3.413-11.947,0l-34.133,34.133c-3.413,3.413-3.413,8.533,0,11.947    s8.533,3.413,11.947,0l34.133-34.133C308.053,186.027,308.053,180.907,304.64,177.493z" data-original="#000000" class="active-path" data-old_color="#1b355c" fill="#1b355c"/>
	</g>
</g><g>
	<g>
		<path d="M256,72.533c-75.093,0-136.533,61.44-136.533,136.533c0,5.12,3.413,8.533,8.533,8.533h34.133    c5.12,0,8.533-3.413,8.533-8.533c0-46.933,38.4-85.333,85.333-85.333s85.333,38.4,85.333,85.333c0,5.12,3.413,8.533,8.533,8.533    H384c5.12,0,8.533-3.413,8.533-8.533C392.533,133.973,331.093,72.533,256,72.533z M358.4,200.533    c-4.267-52.907-48.64-93.867-102.4-93.867s-97.28,40.96-102.4,93.867h-17.067C140.8,138.24,192.853,89.6,256,89.6    s115.2,48.64,119.467,110.933H358.4z" data-original="#000000" class="active-path" data-old_color="#1b355c" fill="#1b355c"/>
	</g>
</g></g> </svg>
