<?xml version="1.0"?>
<svg xmlns="http://www.w3.org/2000/svg" xmlns:xlink="http://www.w3.org/1999/xlink" version="1.1" id="Layer_1" x="0px" y="0px" viewBox="0 0 503.607 503.607" style="enable-background:new 0 0 503.607 503.607;" xml:space="preserve" width="512px" height="512px" class=""><g><g>
	<g>
		<g>
			<path d="M8.393,83.934c4.642,0,8.393-3.76,8.393-8.393V16.787h58.754c4.642,0,8.393-3.76,8.393-8.393S80.183,0,75.541,0H8.393     C3.752,0,0,3.76,0,8.393v67.148C0,80.174,3.752,83.934,8.393,83.934z" data-original="#000000" class="active-path" data-old_color="#1b355c" fill="#1b355c"/>
			<path d="M495.213,0h-67.148c-4.642,0-8.393,3.76-8.393,8.393s3.752,8.393,8.393,8.393h58.754v58.754     c0,4.633,3.752,8.393,8.393,8.393c4.642,0,8.393-3.76,8.393-8.393V8.393C503.607,3.76,499.855,0,495.213,0z" data-original="#000000" class="active-path" data-old_color="#1b355c" fill="#1b355c"/>
			<path d="M495.213,251.803c-4.642,0-8.393,3.76-8.393,8.393v58.754h-58.754c-4.642,0-8.393,3.76-8.393,8.393     c0,4.633,3.752,8.393,8.393,8.393h67.148c4.642,0,8.393-3.76,8.393-8.393v-67.148     C503.607,255.564,499.855,251.803,495.213,251.803z" data-original="#000000" class="active-path" data-old_color="#1b355c" fill="#1b355c"/>
			<path d="M8.393,335.738h67.148c4.642,0,8.393-3.76,8.393-8.393c0-4.633-3.752-8.393-8.393-8.393H16.787v-58.754     c0-4.633-3.752-8.393-8.393-8.393c-4.642,0-8.393,3.76-8.393,8.393v67.148C0,331.977,3.752,335.738,8.393,335.738z" data-original="#000000" class="active-path" data-old_color="#1b355c" fill="#1b355c"/>
			<path d="M163.672,209.836h176.262c11.575,0,20.984-9.417,20.984-20.984s-9.409-20.984-20.984-20.984H163.672     c-11.575,0-20.984,9.417-20.984,20.984S152.098,209.836,163.672,209.836z M163.672,184.656h176.262     c2.308,0,4.197,1.88,4.197,4.197s-1.889,4.197-4.197,4.197H163.672c-2.308,0-4.197-1.88-4.197-4.197     S161.364,184.656,163.672,184.656z" data-original="#000000" class="active-path" data-old_color="#1b355c" fill="#1b355c"/>
			<path d="M478.409,426.253c-39.36-20.67-106.363-43.972-151.084-53.338c34.251-29.696,56.505-77.175,58.608-122.5     c9.854-3.419,16.951-12.79,16.951-23.792c4.642,0,8.393-3.76,8.393-8.393v-8.393c0-4.633-3.752-8.393-8.393-8.393v-16.787     c4.642,0,8.393-3.76,8.393-8.393v-8.393c0-4.633-3.752-8.393-8.393-8.393c0-12.945-9.823-23.637-22.405-25.024     C365.215,76.259,316.295,16.787,251.804,16.787S138.386,76.259,123.127,134.451c-12.582,1.386-22.406,12.079-22.406,25.024     c-4.642,0-8.393,3.76-8.393,8.393v8.393c0,4.633,3.752,8.393,8.393,8.393v16.787c-4.642,0-8.393,3.76-8.393,8.393v8.393     c0,4.633,3.752,8.393,8.393,8.393c0,11.001,7.098,20.373,16.951,23.792c2.103,45.309,24.342,92.771,58.572,122.469     c-44.674,9.369-111.65,32.687-151.048,53.369C9.652,434.411,0,450.3,0,467.725v27.489c0,4.633,3.752,8.393,8.393,8.393h318.951     h67.148h100.721c4.642,0,8.393-3.76,8.393-8.393v-27.489C503.607,450.3,493.954,434.411,478.409,426.253z M251.804,33.574     c54.443,0,96.419,50.17,111.217,100.721H140.58C155.385,83.744,197.361,33.574,251.804,33.574z M117.508,159.475     c0-4.625,3.76-8.393,8.393-8.393h3.717c0.029,0.001,0.058,0,0.087,0h247.999c4.633,0,8.393,3.769,8.393,8.393v67.148     c0,4.625-3.76,8.393-8.393,8.393H125.902c-4.633,0-8.393-3.769-8.393-8.393V159.475z M134.522,251.803h234.562     c-4.063,77.419-63.735,134.295-117.281,134.295C198.257,386.098,138.585,329.222,134.522,251.803z M274.766,400.321     l-19.907,26.468c-0.999,1.326-2.342,1.528-3.055,1.528s-2.056-0.201-3.064-1.536l-19.902-26.46     c7.425,1.667,15.091,2.564,22.965,2.564C259.676,402.885,267.341,401.988,274.766,400.321z M335.738,486.82v-16.787h50.361     v16.787H335.738z M486.82,486.82h-83.934v-25.18c0-4.633-3.752-8.393-8.393-8.393h-67.148c-4.642,0-8.393,3.76-8.393,8.393v25.18     H16.787v-19.095c0-11.163,6.211-21.353,16.216-26.607c43.296-22.738,120.701-48.715,161.98-54.553     c1.451,0.874,2.92,1.713,4.401,2.525l35.934,47.772c3.928,5.238,9.938,8.242,16.485,8.242s12.557-3.005,16.476-8.234     l35.921-47.769c1.47-0.805,2.928-1.637,4.369-2.504c41.346,5.845,118.778,31.806,162.034,54.52     c10.005,5.254,16.216,15.444,16.216,26.607V486.82z" data-original="#000000" class="active-path" data-old_color="#1b355c" fill="#1b355c"/>
			<path d="M402.885,67.148h33.574v33.574c0,4.633,3.752,8.393,8.393,8.393c4.642,0,8.393-3.76,8.393-8.393V58.754     c0-4.633-3.752-8.393-8.393-8.393h-41.967c-4.642,0-8.393,3.76-8.393,8.393S398.244,67.148,402.885,67.148z" data-original="#000000" class="active-path" data-old_color="#1b355c" fill="#1b355c"/>
			<path d="M50.361,58.754v41.967c0,4.633,3.752,8.393,8.393,8.393c4.642,0,8.393-3.76,8.393-8.393V67.148h33.574     c4.642,0,8.393-3.76,8.393-8.393s-3.752-8.393-8.393-8.393H58.754C54.113,50.361,50.361,54.121,50.361,58.754z" data-original="#000000" class="active-path" data-old_color="#1b355c" fill="#1b355c"/>
			<path d="M58.754,226.623c-4.642,0-8.393,3.76-8.393,8.393v41.967c0,4.633,3.752,8.393,8.393,8.393h41.967     c4.642,0,8.393-3.76,8.393-8.393c0-4.633-3.752-8.393-8.393-8.393H67.148v-33.574C67.148,230.383,63.396,226.623,58.754,226.623z     " data-original="#000000" class="active-path" data-old_color="#1b355c" fill="#1b355c"/>
			<path d="M444.852,226.623c-4.642,0-8.393,3.76-8.393,8.393v33.574h-33.574c-4.642,0-8.393,3.76-8.393,8.393     c0,4.633,3.752,8.393,8.393,8.393h41.967c4.642,0,8.393-3.76,8.393-8.393v-41.967     C453.246,230.383,449.494,226.623,444.852,226.623z" data-original="#000000" class="active-path" data-old_color="#1b355c" fill="#1b355c"/>
		</g>
	</g>
</g></g> </svg>
