<?xml version="1.0"?>
<svg xmlns="http://www.w3.org/2000/svg" xmlns:xlink="http://www.w3.org/1999/xlink" version="1.1" id="Layer_1" x="0px" y="0px" viewBox="0 0 512 512" style="enable-background:new 0 0 512 512;" xml:space="preserve" width="512px" height="512px"><g><g>
	<g>
		<g>
			<path d="M355.456,103.022l-22.656-45.313V8.533c0-4.71-3.814-8.533-8.533-8.533H187.732c-4.719,0-8.533,3.823-8.533,8.533v49.179     l-22.655,45.31c-11.435,2.558-20.011,12.784-20.011,24.978v256c0,12.074,8.408,22.218,19.674,24.9l22.992,53.647v40.919     c0,4.71,3.814,8.533,8.533,8.533h136.533c4.719,0,8.533-3.823,8.533-8.533v-40.915l22.993-53.651     c11.266-2.682,19.674-12.826,19.674-24.9V128C375.467,115.806,366.89,105.58,355.456,103.022z M318.643,452.267H193.357     L175.073,409.6h161.854L318.643,452.267z M153.6,384V128c0-4.702,3.823-8.533,8.533-8.533h0.143c0.055-0.001,0.111,0.002,0.166,0     h187.425c4.71,0,8.533,3.831,8.533,8.533v256c0,4.702-3.823,8.533-8.533,8.533H162.145c-0.025,0-0.049-0.003-0.074-0.003     C157.39,392.496,153.6,388.681,153.6,384z M193.007,68.267h125.986l17.064,34.133H175.943L193.007,68.267z M196.266,17.067     h119.467V51.2H196.266V17.067z M315.732,494.933H196.266v-25.6h119.467V494.933z" data-original="#000000" class="active-path" data-old_color="#1b355c" fill="#1b355c"/>
			<path d="M208.596,237.327l42.052,33.852c1.562,1.263,3.456,1.886,5.35,1.886s3.789-0.623,5.35-1.886l42.274-34.031     c9.651-8.329,16.29-18.884,19.191-30.549c1.929-7.774,1.476-12.937,1.195-14.788c-2.176-21.803-19.2-38.204-39.714-38.204     c-11.503,0-21.35,5.982-28.297,13.875c-6.938-7.893-16.794-13.884-28.288-13.884c-20.523,0-37.547,16.41-39.723,38.212     c-0.282,1.852-0.734,7.014,1.195,14.788C192.084,218.255,198.723,228.819,208.596,237.327z M204.825,194.592     c0.06-0.29,0.102-0.589,0.137-0.887c1.067-11.452,9.216-23.04,22.75-23.04c9.25,0,17.109,8.209,20.489,15.838     c1.365,3.089,4.429,5.069,7.799,5.069c3.379,0,6.434-1.98,7.799-5.069c3.388-7.62,11.247-15.829,20.497-15.829     c13.525,0,21.683,11.588,22.835,23.706c0.009,0.034,0.401,2.918-0.879,8.107c-2.048,8.209-6.801,15.727-13.551,21.555     l-36.702,29.542l-36.471-29.363c-6.98-6.007-11.733-13.525-13.781-21.726C204.509,197.459,204.833,194.592,204.825,194.592z" data-original="#000000" class="active-path" data-old_color="#1b355c" fill="#1b355c"/>
			<path d="M193.766,338.833l2.5-2.5v30.601c0,4.71,3.814,8.533,8.533,8.533s8.533-3.823,8.533-8.533v-51.2     c0-3.447-2.074-6.562-5.265-7.885c-3.183-1.323-6.861-0.597-9.301,1.852L181.7,326.767c-3.336,3.336-3.336,8.73,0,12.066     C185.037,342.17,190.43,342.17,193.766,338.833z" data-original="#000000" class="active-path" data-old_color="#1b355c" fill="#1b355c"/>
			<path d="M247.467,307.2c-14.362,0-25.6,14.993-25.6,34.133c0,19.14,11.238,34.133,25.6,34.133c14.362,0,25.6-14.993,25.6-34.133     C273.067,322.193,261.828,307.2,247.467,307.2z M247.467,358.4c-3.482,0-8.533-6.647-8.533-17.067     c0-10.419,5.052-17.067,8.533-17.067c3.482,0,8.533,6.647,8.533,17.067C256,351.753,250.948,358.4,247.467,358.4z" data-original="#000000" class="active-path" data-old_color="#1b355c" fill="#1b355c"/>
			<path d="M307.2,307.2c-14.362,0-25.6,14.993-25.6,34.133c0,19.14,11.238,34.133,25.6,34.133c14.362,0,25.6-14.993,25.6-34.133     C332.8,322.193,321.562,307.2,307.2,307.2z M307.2,358.4c-3.482,0-8.533-6.647-8.533-17.067c0-10.419,5.052-17.067,8.533-17.067     c3.482,0,8.533,6.647,8.533,17.067C315.733,351.753,310.682,358.4,307.2,358.4z" data-original="#000000" class="active-path" data-old_color="#1b355c" fill="#1b355c"/>
		</g>
	</g>
</g></g> </svg>
